<svg width="16" height="16" viewBox="0 0 16 16" fill="none" xmlns="http://www.w3.org/2000/svg">
<path d="M8 12.6693C8.63066 12.6693 9.20666 12.6006 9.732 12.4819L8.56066 11.3106C8.37866 11.3246 8.194 11.3359 8 11.3359C4.43266 11.3359 3.05066 8.77192 2.716 8.00258C2.852 7.68925 3.16533 7.08192 3.72133 6.47125L2.78933 5.53925C1.764 6.65058 1.37533 7.76992 1.368 7.79192C1.322 7.92858 1.322 8.07725 1.368 8.21392C1.382 8.25792 2.91133 12.6693 8 12.6693ZM8 3.33592C6.77533 3.33592 5.76933 3.59992 4.93066 3.98992L2.47133 1.53125L1.52866 2.47392L13.5287 14.4739L14.4713 13.5313L12.2587 11.3186C14.0013 10.0179 14.6233 8.24192 14.6327 8.21392C14.6787 8.07725 14.6787 7.92858 14.6327 7.79192C14.618 7.74725 13.0887 3.33592 8 3.33592ZM11.3147 10.3746L9.79466 8.85458C9.92133 8.59458 10 8.30858 10 8.00258C10 6.90858 9.094 6.00258 8 6.00258C7.694 6.00258 7.408 6.08125 7.14866 6.20858L5.94333 5.00325C6.53066 4.79792 7.20933 4.66925 8 4.66925C11.5673 4.66925 12.9493 7.23325 13.284 8.00258C13.0827 8.46392 12.5067 9.56392 11.3147 10.3746Z" fill="var(--icon-color, currentColor)"/>
</svg>