<svg width="16" height="16" viewBox="0 0 16 16" fill="#004248" xmlns="http://www.w3.org/2000/svg">
<path d="M8.00003 5.99999C6.90536 5.99999 6.00003 6.90599 6.00003 8C6.00003 9.09466 6.90536 10 8.00003 10C9.09403 10 10 9.09466 10 8C10 6.90599 9.09403 5.99999 8.00003 5.99999Z" />
<path d="M8.00003 3.33333C2.91136 3.33333 1.38203 7.74466 1.36803 7.78933L1.29736 8L1.36736 8.21066C1.38203 8.25533 2.91136 12.6667 8.00003 12.6667C13.0887 12.6667 14.618 8.25533 14.632 8.21066L14.7027 8L14.6327 7.78933C14.618 7.74466 13.0887 3.33333 8.00003 3.33333ZM8.00003 11.3333C4.4327 11.3333 3.0507 8.76933 2.71603 8C3.05203 7.228 4.4347 4.66666 8.00003 4.66666C11.5674 4.66666 12.9494 7.23066 13.284 8C12.948 8.772 11.5654 11.3333 8.00003 11.3333Z" />
</svg>